<svg width="109" height="48" viewBox="0 0 109 48" fill="none" xmlns="http://www.w3.org/2000/svg">
<path d="M4.5625 36C3.84375 36 3.24219 35.7969 2.75781 35.3906C2.28906 34.9688 1.91406 34.4062 1.63281 33.7031C1.35156 33 1.14844 32.1953 1.02344 31.2891C0.914062 30.3672 0.859375 29.4062 0.859375 28.4062C0.859375 26.8281 0.921875 25.4062 1.04688 24.1406C1.17188 22.875 1.32031 21.7891 1.49219 20.8828C1.66406 19.9609 1.83594 19.2422 2.00781 18.7266C2.17969 18.1953 2.30469 17.875 2.38281 17.7656C2.49219 17.625 2.63281 17.4922 2.80469 17.3672C2.99219 17.2422 3.17969 17.1406 3.36719 17.0625C3.55469 16.9844 3.74219 16.9219 3.92969 16.875C4.11719 16.8281 4.27344 16.8047 4.39844 16.8047C4.75781 16.8047 5.00781 16.875 5.14844 17.0156C5.28906 17.1562 5.35938 17.4062 5.35938 17.7656C5.34375 17.7656 5.30469 17.9297 5.24219 18.2578C5.19531 18.5703 5.13281 19 5.05469 19.5469C4.97656 20.0938 4.89062 20.7344 4.79688 21.4688C4.70312 22.1875 4.61719 22.9531 4.53906 23.7656C4.47656 24.5781 4.42188 25.4062 4.375 26.25C4.32812 27.0781 4.30469 27.8828 4.30469 28.6641C4.30469 29.3516 4.32812 29.9922 4.375 30.5859C4.42188 31.1797 4.5 31.7031 4.60938 32.1562C4.73438 32.6094 4.88281 32.9688 5.05469 33.2344C5.24219 33.4844 5.47656 33.6094 5.75781 33.6094C6.03906 33.6094 6.30469 33.4297 6.55469 33.0703C6.80469 32.6953 7.03906 32.2188 7.25781 31.6406C7.47656 31.0469 7.67969 30.3906 7.86719 29.6719C8.05469 28.9375 8.22656 28.2031 8.38281 27.4688C8.53906 26.7188 8.67969 26.0156 8.80469 25.3594C8.94531 24.6875 9.0625 24.125 9.15625 23.6719C9.21875 23.4375 9.33594 23.2266 9.50781 23.0391C9.69531 22.8359 9.91406 22.6641 10.1641 22.5234C10.4141 22.3828 10.6797 22.2734 10.9609 22.1953C11.2422 22.1172 11.5078 22.0781 11.7578 22.0781C11.9453 22.0781 12.0703 22.1406 12.1328 22.2656C12.1953 22.375 12.2266 22.5547 12.2266 22.8047C12.2266 24.2109 12.3125 25.5781 12.4844 26.9062C12.6562 28.2344 12.8984 29.4141 13.2109 30.4453C13.5391 31.4766 13.9219 32.3047 14.3594 32.9297C14.7969 33.5391 15.2891 33.8438 15.8359 33.8438C16.2109 33.8438 16.5625 33.7031 16.8906 33.4219C17.2188 33.125 17.5078 32.7656 17.7578 32.3438C18.0234 31.9062 18.2344 31.4453 18.3906 30.9609C18.5625 30.4766 18.6719 30.0469 18.7188 29.6719C18.0938 29.4062 17.5078 28.9844 16.9609 28.4062C16.4141 27.8125 15.9297 27.125 15.5078 26.3438C15.1016 25.5469 14.7812 24.6875 14.5469 23.7656C14.3125 22.8438 14.1953 21.9141 14.1953 20.9766C14.1953 20.4609 14.25 19.9531 14.3594 19.4531C14.4688 18.9531 14.6328 18.5078 14.8516 18.1172C15.0859 17.7266 15.375 17.4141 15.7188 17.1797C16.0625 16.9297 16.4688 16.8047 16.9375 16.8047C17.5625 16.8047 18.1016 17 18.5547 17.3906C19.0234 17.7812 19.4062 18.3125 19.7031 18.9844C20.0156 19.6406 20.25 20.4062 20.4062 21.2812C20.5625 22.1562 20.6406 23.0781 20.6406 24.0469C20.6406 24.7656 20.5938 25.5625 20.5 26.4375C20.4062 27.3125 20.2891 28.1172 20.1484 28.8516H20.5938C21.375 28.8516 22.0469 28.5703 22.6094 28.0078C23.1875 27.4453 23.6797 26.75 24.0859 25.9219L24.3203 25.4297L25.2812 26.1562L25.0469 26.6484C24.5469 27.6328 23.8984 28.4375 23.1016 29.0625C22.3047 29.6875 21.3516 30 20.2422 30H19.9141C19.6797 30.8438 19.3984 31.6328 19.0703 32.3672C18.7422 33.0859 18.3594 33.7188 17.9219 34.2656C17.5 34.7969 17.0312 35.2188 16.5156 35.5312C16 35.8438 15.4531 36 14.875 36C14.2031 36 13.6094 35.8672 13.0938 35.6016C12.5938 35.3359 12.1562 34.9844 11.7812 34.5469C11.4062 34.0938 11.0859 33.5938 10.8203 33.0469C10.5703 32.4844 10.3594 31.9141 10.1875 31.3359C10.0312 30.7422 9.90625 30.1719 9.8125 29.625C9.71875 29.0625 9.64844 28.5625 9.60156 28.125C9.47656 28.6406 9.34375 29.1953 9.20312 29.7891C9.0625 30.3672 8.89844 30.9531 8.71094 31.5469C8.52344 32.125 8.30469 32.6875 8.05469 33.2344C7.80469 33.7656 7.50781 34.2344 7.16406 34.6406C6.83594 35.0469 6.45312 35.375 6.01562 35.625C5.59375 35.875 5.10938 36 4.5625 36ZM15.5547 21.0234C15.5547 21.7422 15.6328 22.4844 15.7891 23.25C15.9453 24 16.1719 24.7109 16.4688 25.3828C16.7656 26.0547 17.1172 26.6562 17.5234 27.1875C17.9453 27.7188 18.4062 28.125 18.9062 28.4062C18.9219 28.2188 18.9375 28 18.9531 27.75C18.9844 27.5 19 27.2422 19 26.9766C19.0156 26.6953 19.0234 26.4297 19.0234 26.1797C19.0391 25.9141 19.0469 25.6797 19.0469 25.4766C19.0469 24.6016 18.9922 23.7578 18.8828 22.9453C18.7734 22.1172 18.6172 21.3828 18.4141 20.7422C18.2109 20.1016 17.9688 19.5938 17.6875 19.2188C17.4062 18.8281 17.0938 18.6328 16.75 18.6328C16.5156 18.6328 16.3203 18.7109 16.1641 18.8672C16.0078 19.0078 15.8828 19.1953 15.7891 19.4297C15.6953 19.6641 15.6328 19.9219 15.6016 20.2031C15.5703 20.4844 15.5547 20.7578 15.5547 21.0234ZM31.2578 33.3516C31.8047 33.3516 32.3594 33.2109 32.9219 32.9297C33.5 32.6484 34.0781 32.2109 34.6562 31.6172C35.25 31.0234 35.8594 30.2578 36.4844 29.3203C37.1094 28.3672 37.75 27.2344 38.4062 25.9219L38.6406 25.4297L39.6016 26.1562L39.3672 26.6484C38.5234 28.3203 37.6797 29.75 36.8359 30.9375C36.0078 32.125 35.1875 33.0938 34.375 33.8438C33.5781 34.5938 32.7891 35.1406 32.0078 35.4844C31.2266 35.8281 30.4766 36 29.7578 36C28.7422 36 27.8359 35.7891 27.0391 35.3672C26.2422 34.9453 25.5703 34.375 25.0234 33.6562C24.4766 32.9219 24.0625 32.0781 23.7812 31.125C23.4844 30.1562 23.3359 29.1406 23.3359 28.0781C23.3359 26.3906 23.5703 24.8594 24.0391 23.4844C24.4922 22.0938 25.1016 20.9062 25.8672 19.9219C26.6484 18.9375 27.5312 18.1719 28.5156 17.625C29.5 17.0781 30.5234 16.8047 31.5859 16.8047C32.6641 16.8047 33.4844 17.0781 34.0469 17.625C34.625 18.1719 34.9141 18.8594 34.9141 19.6875C34.9141 20.4844 34.6875 21.2344 34.2344 21.9375C33.7812 22.625 33.1641 23.3047 32.3828 23.9766C31.6172 24.6328 30.7266 25.2891 29.7109 25.9453C28.6953 26.5859 27.625 27.25 26.5 27.9375C26.6094 28.75 26.7969 29.4922 27.0625 30.1641C27.3281 30.8203 27.6641 31.3906 28.0703 31.875C28.4766 32.3438 28.9453 32.7109 29.4766 32.9766C30.0078 33.2266 30.6016 33.3516 31.2578 33.3516ZM31.9844 20.3906C31.9844 19.7656 31.8125 19.2734 31.4688 18.9141C31.1406 18.5547 30.7344 18.375 30.25 18.375C29.8438 18.375 29.4141 18.5234 28.9609 18.8203C28.5078 19.1016 28.0938 19.5625 27.7188 20.2031C27.3438 20.8281 27.0312 21.6328 26.7812 22.6172C26.5312 23.6016 26.4062 24.7969 26.4062 26.2031V26.7422C26.9375 26.4609 27.5234 26.0938 28.1641 25.6406C28.8203 25.1719 29.4297 24.6562 29.9922 24.0938C30.5547 23.5312 31.0234 22.9375 31.3984 22.3125C31.7891 21.6719 31.9844 21.0312 31.9844 20.3906ZM43.6797 33.0234C43.9609 33.0234 44.2812 32.8438 44.6406 32.4844C45.0156 32.1094 45.4141 31.6016 45.8359 30.9609C46.2578 30.3203 46.7031 29.5703 47.1719 28.7109C47.6406 27.8516 48.125 26.9219 48.625 25.9219L48.8594 25.4297L49.8203 26.1562L49.5859 26.6484C48.7578 28.3047 48.0156 29.7266 47.3594 30.9141C46.7188 32.0859 46.1172 33.0547 45.5547 33.8203C44.9922 34.5703 44.4531 35.125 43.9375 35.4844C43.4375 35.8281 42.9219 36 42.3906 36C41.6875 36 41.0781 35.7734 40.5625 35.3203C40.0625 34.8516 39.6406 34.0781 39.2969 33C38.9688 31.9062 38.7266 30.4688 38.5703 28.6875C38.3984 26.9062 38.3125 24.7031 38.3125 22.0781C38.3125 18.3594 38.4688 15.1719 38.7812 12.5156C39.0938 9.84375 39.5156 7.65625 40.0469 5.95312C40.5938 4.23438 41.2188 2.97656 41.9219 2.17969C42.6406 1.36719 43.3906 0.960938 44.1719 0.960938C44.6406 0.960938 45.0312 1.15625 45.3438 1.54688C45.6719 1.92188 45.8359 2.60938 45.8359 3.60938C45.8359 4.39062 45.7734 5.28125 45.6484 6.28125C45.5234 7.28125 45.3594 8.35156 45.1562 9.49219C44.9531 10.6328 44.7109 11.8203 44.4297 13.0547C44.1484 14.2734 43.8516 15.4922 43.5391 16.7109C43.2266 17.9141 42.9062 19.1016 42.5781 20.2734C42.25 21.4297 41.9297 22.5156 41.6172 23.5312C41.7109 25.4531 41.8125 27.0312 41.9219 28.2656C42.0469 29.4844 42.1875 30.4453 42.3438 31.1484C42.5156 31.8516 42.7109 32.3438 42.9297 32.625C43.1484 32.8906 43.3984 33.0234 43.6797 33.0234ZM44.3125 4.17188C44.3125 3.84375 44.2734 3.58594 44.1953 3.39844C44.1172 3.21094 43.9922 3.11719 43.8203 3.11719C43.6484 3.11719 43.4766 3.35938 43.3047 3.84375C43.1328 4.32812 42.9609 4.98438 42.7891 5.8125C42.6328 6.64062 42.4844 7.60156 42.3438 8.69531C42.2188 9.78906 42.1016 10.9531 41.9922 12.1875C41.8828 13.4062 41.7969 14.6562 41.7344 15.9375C41.6719 17.2188 41.6328 18.4531 41.6172 19.6406C41.9922 18.2656 42.3359 16.8594 42.6484 15.4219C42.9766 13.9688 43.2656 12.5625 43.5156 11.2031C43.7656 9.84375 43.9609 8.5625 44.1016 7.35938C44.2422 6.14062 44.3125 5.07812 44.3125 4.17188ZM58.8906 25.4297L59.8516 26.1562L59.6172 26.6484C59.0391 27.8047 58.2734 28.7266 57.3203 29.4141C56.3828 30.0859 55.3516 30.4219 54.2266 30.4219C53.8984 30.4219 53.5547 30.3906 53.1953 30.3281C52.8516 30.25 52.5078 30.1406 52.1641 30V47.7656L49.7734 48C49.5859 45.3594 49.4219 42.5078 49.2812 39.4453C49.2188 38.1328 49.1562 36.7109 49.0938 35.1797C49.0469 33.6484 49 32.0391 48.9531 30.3516C48.9062 28.6484 48.875 26.8828 48.8594 25.0547C48.8281 23.2109 48.8125 21.3359 48.8125 19.4297C48.8125 16.4297 48.9766 13.7812 49.3047 11.4844C49.6328 9.1875 50.0703 7.25781 50.6172 5.69531C51.1797 4.13281 51.8203 2.95312 52.5391 2.15625C53.2578 1.35938 54.0156 0.960938 54.8125 0.960938C55.1094 0.960938 55.3906 1.01562 55.6562 1.125C55.9219 1.21875 56.1484 1.375 56.3359 1.59375C56.5391 1.8125 56.6953 2.10938 56.8047 2.48438C56.9141 2.85938 56.9688 3.3125 56.9688 3.84375C56.9688 5.1875 56.8125 6.67188 56.5 8.29688C56.1875 9.90625 55.7891 11.5391 55.3047 13.1953C54.8359 14.8516 54.3203 16.4766 53.7578 18.0703C53.1953 19.6484 52.6641 21.0781 52.1641 22.3594V27.6094C52.3047 27.7969 52.4688 27.9609 52.6562 28.1016C52.8594 28.2422 53.0703 28.3594 53.2891 28.4531C53.5234 28.5312 53.7578 28.5938 53.9922 28.6406C54.2266 28.6875 54.4375 28.7109 54.625 28.7109C55.4375 28.7109 56.1875 28.5 56.875 28.0781C57.5625 27.6562 58.1562 26.9375 58.6562 25.9219L58.8906 25.4297ZM52.1641 19.3359C52.5547 18.2266 52.9219 17.0703 53.2656 15.8672C53.6094 14.6641 53.9141 13.4531 54.1797 12.2344C54.4453 11 54.6562 9.77344 54.8125 8.55469C54.9688 7.33594 55.0469 6.16406 55.0469 5.03906C55.0469 4.32031 54.9766 3.74219 54.8359 3.30469C54.6953 2.86719 54.4297 2.64844 54.0391 2.64844C53.6953 2.64844 53.3984 3 53.1484 3.70312C52.9141 4.40625 52.7188 5.35938 52.5625 6.5625C52.4219 7.75 52.3203 9.14844 52.2578 10.7578C52.1953 12.3516 52.1641 14.0469 52.1641 15.8438V19.3359ZM73.0938 30.1875C73.0938 31.0781 73.1719 31.8281 73.3281 32.4375C73.4844 33.0469 73.7578 33.3516 74.1484 33.3516C74.3828 33.3516 74.6328 33.2422 74.8984 33.0234C75.1797 32.7891 75.5 32.4141 75.8594 31.8984C76.2188 31.3828 76.625 30.7188 77.0781 29.9062C77.5469 29.0781 78.0781 28.0703 78.6719 26.8828L79.375 25.4297L80.3359 26.1562L79.6328 27.6094C78.9766 28.9219 78.3594 30.1016 77.7812 31.1484C77.2188 32.1797 76.6797 33.0547 76.1641 33.7734C75.6484 34.4922 75.1406 35.0469 74.6406 35.4375C74.1562 35.8125 73.6719 36 73.1875 36C72.6719 36 72.2344 35.8594 71.875 35.5781C71.5312 35.2969 71.2422 34.9141 71.0078 34.4297C70.7734 33.9297 70.5938 33.3594 70.4688 32.7188C70.3438 32.0625 70.2578 31.3672 70.2109 30.6328C69.8359 31.3828 69.4219 32.0859 68.9688 32.7422C68.5156 33.3828 68.0391 33.9453 67.5391 34.4297C67.0547 34.9141 66.5469 35.2969 66.0156 35.5781C65.4844 35.8594 64.9531 36 64.4219 36C63.6406 36 62.8828 35.8359 62.1484 35.5078C61.4141 35.1797 60.7578 34.6797 60.1797 34.0078C59.6172 33.3359 59.1641 32.4922 58.8203 31.4766C58.4766 30.4453 58.3047 29.2344 58.3047 27.8438C58.3047 26.2188 58.5156 24.7344 58.9375 23.3906C59.3594 22.0312 59.9297 20.8672 60.6484 19.8984C61.3672 18.9141 62.1953 18.1562 63.1328 17.625C64.0703 17.0781 65.0547 16.8047 66.0859 16.8047C66.7109 16.8047 67.2891 16.9453 67.8203 17.2266C68.3516 17.5078 68.8125 17.8516 69.2031 18.2578C69.6094 18.6484 69.9453 19.0703 70.2109 19.5234C70.4766 19.9609 70.6562 20.3359 70.75 20.6484L71.0312 18.375C71.0625 18.0781 71.2031 17.8281 71.4531 17.625C71.7188 17.4219 72.0078 17.2656 72.3203 17.1562C72.6328 17.0312 72.9375 16.9453 73.2344 16.8984C73.5312 16.8359 73.7422 16.8047 73.8672 16.8047C74.0547 16.8047 74.1797 16.8359 74.2422 16.8984C74.3047 16.9609 74.3359 17.0859 74.3359 17.2734C74.3359 17.5078 74.2656 17.9844 74.125 18.7031C74 19.4062 73.8594 20.3125 73.7031 21.4219C73.5625 22.5156 73.4219 23.8047 73.2812 25.2891C73.1562 26.7734 73.0938 28.4062 73.0938 30.1875ZM70.5156 24C70.5156 23.2812 70.4062 22.5781 70.1875 21.8906C69.9688 21.1875 69.6719 20.5703 69.2969 20.0391C68.9219 19.4922 68.4844 19.0547 67.9844 18.7266C67.5 18.3984 66.9844 18.2344 66.4375 18.2344C65.7656 18.2344 65.1328 18.4297 64.5391 18.8203C63.9609 19.1953 63.4531 19.7344 63.0156 20.4375C62.5938 21.125 62.2578 21.9609 62.0078 22.9453C61.7578 23.9141 61.6328 24.9844 61.6328 26.1562C61.6328 28.5 62 30.2891 62.7344 31.5234C63.4688 32.7422 64.4453 33.3516 65.6641 33.3516C66.1953 33.3516 66.7422 33.1406 67.3047 32.7188C67.8828 32.2812 68.4062 31.6641 68.875 30.8672C69.3594 30.0547 69.75 29.0703 70.0469 27.9141C70.3594 26.7578 70.5156 25.4531 70.5156 24ZM79.1406 25.9219L79.375 25.4297C79.6094 24.9609 79.8203 24.4766 80.0078 23.9766C80.2109 23.4766 80.3828 23.0078 80.5234 22.5703C80.6641 22.1172 80.7734 21.7188 80.8516 21.375C80.9297 21.0156 80.9844 20.7422 81.0156 20.5547C80.6094 20.5078 80.2188 20.4062 79.8438 20.25C79.4688 20.0938 79.1406 19.8828 78.8594 19.6172C78.5781 19.3516 78.3594 19.0391 78.2031 18.6797C78.0312 18.3203 77.9453 17.9141 77.9453 17.4609C77.9453 17.1016 78.0078 16.7812 78.1328 16.5C78.2578 16.2188 78.4297 15.9844 78.6484 15.7969C78.8516 15.6094 79.0859 15.4688 79.3516 15.375C79.6016 15.2656 79.8672 15.2109 80.1484 15.2109C80.5234 15.2109 80.8516 15.2891 81.1328 15.4453C81.4141 15.6016 81.6484 15.8125 81.8359 16.0781C82.0234 16.3281 82.1641 16.625 82.2578 16.9688C82.3516 17.2969 82.3984 17.6406 82.3984 18C82.8359 18 83.3047 17.9375 83.8047 17.8125C84.3203 17.6875 84.8359 17.5547 85.3516 17.4141C85.8672 17.2578 86.375 17.1172 86.875 16.9922C87.375 16.8672 87.8359 16.8047 88.2578 16.8047C88.6172 16.8047 88.9062 16.8828 89.125 17.0391C89.3438 17.1797 89.4531 17.4219 89.4531 17.7656C89.4531 18.0156 89.375 18.4297 89.2188 19.0078C89.0781 19.5859 88.8984 20.2578 88.6797 21.0234C88.4609 21.7891 88.2188 22.625 87.9531 23.5312C87.7031 24.4219 87.4688 25.3281 87.25 26.25C87.0312 27.1562 86.8438 28.0391 86.6875 28.8984C86.5469 29.7578 86.4766 30.5234 86.4766 31.1953C86.4766 32.0391 86.5703 32.6094 86.7578 32.9062C86.9453 33.2031 87.2812 33.3516 87.7656 33.3516C87.9688 33.3516 88.2188 33.2656 88.5156 33.0938C88.8281 32.9062 89.2031 32.5547 89.6406 32.0391C90.0781 31.5078 90.5938 30.7578 91.1875 29.7891C91.7969 28.8047 92.5 27.5156 93.2969 25.9219L93.5312 25.4297L94.4922 26.1562L94.2578 26.6484C93.3203 28.5234 92.4844 30.0625 91.75 31.2656C91.0156 32.4688 90.3359 33.4219 89.7109 34.125C89.1016 34.8281 88.5234 35.3203 87.9766 35.6016C87.4297 35.8672 86.8828 36 86.3359 36C85.4141 36 84.6641 35.6484 84.0859 34.9453C83.5078 34.2422 83.2188 33.1562 83.2188 31.6875C83.2188 30.8906 83.3281 30.0625 83.5469 29.2031C83.7656 28.3438 84.0391 27.4922 84.3672 26.6484C84.6953 25.7891 85.0625 24.9453 85.4688 24.1172C85.875 23.2891 86.2578 22.5078 86.6172 21.7734C86.9922 21.0234 87.3281 20.3281 87.625 19.6875C87.9219 19.0469 88.1328 18.4844 88.2578 18L88.1172 17.8594C87.8672 17.8594 87.5312 17.9922 87.1094 18.2578C86.6875 18.5234 86.2109 18.8281 85.6797 19.1719C85.1641 19.5 84.6094 19.8125 84.0156 20.1094C83.4219 20.4062 82.8203 20.5859 82.2109 20.6484C82.1797 20.8672 82.1094 21.1875 82 21.6094C81.9062 22.0312 81.7734 22.5 81.6016 23.0156C81.4297 23.5312 81.2344 24.0625 81.0156 24.6094C80.7969 25.1562 80.5703 25.6719 80.3359 26.1562L80.1016 26.6484L79.1406 25.9219ZM80.2891 16.5234C80.1484 16.5234 80.0312 16.5703 79.9375 16.6641C79.8438 16.7578 79.7969 16.8672 79.7969 16.9922C79.7969 17.1797 79.8438 17.3438 79.9375 17.4844C80.0312 17.6094 80.1484 17.7188 80.2891 17.8125C80.4297 17.8906 80.5703 17.9531 80.7109 18C80.8672 18.0312 81 18.0469 81.1094 18.0469C81.1094 17.6094 81.0391 17.25 80.8984 16.9688C80.7578 16.6719 80.5547 16.5234 80.2891 16.5234ZM100.445 33.3516C100.992 33.3516 101.547 33.2109 102.109 32.9297C102.688 32.6484 103.266 32.2109 103.844 31.6172C104.438 31.0234 105.047 30.2578 105.672 29.3203C106.297 28.3672 106.938 27.2344 107.594 25.9219L107.828 25.4297L108.789 26.1562L108.555 26.6484C107.711 28.3203 106.867 29.75 106.023 30.9375C105.195 32.125 104.375 33.0938 103.562 33.8438C102.766 34.5938 101.977 35.1406 101.195 35.4844C100.414 35.8281 99.6641 36 98.9453 36C97.9297 36 97.0234 35.7891 96.2266 35.3672C95.4297 34.9453 94.7578 34.375 94.2109 33.6562C93.6641 32.9219 93.25 32.0781 92.9688 31.125C92.6719 30.1562 92.5234 29.1406 92.5234 28.0781C92.5234 26.3906 92.7578 24.8594 93.2266 23.4844C93.6797 22.0938 94.2891 20.9062 95.0547 19.9219C95.8359 18.9375 96.7188 18.1719 97.7031 17.625C98.6875 17.0781 99.7109 16.8047 100.773 16.8047C101.852 16.8047 102.672 17.0781 103.234 17.625C103.812 18.1719 104.102 18.8594 104.102 19.6875C104.102 20.4844 103.875 21.2344 103.422 21.9375C102.969 22.625 102.352 23.3047 101.57 23.9766C100.805 24.6328 99.9141 25.2891 98.8984 25.9453C97.8828 26.5859 96.8125 27.25 95.6875 27.9375C95.7969 28.75 95.9844 29.4922 96.25 30.1641C96.5156 30.8203 96.8516 31.3906 97.2578 31.875C97.6641 32.3438 98.1328 32.7109 98.6641 32.9766C99.1953 33.2266 99.7891 33.3516 100.445 33.3516ZM101.172 20.3906C101.172 19.7656 101 19.2734 100.656 18.9141C100.328 18.5547 99.9219 18.375 99.4375 18.375C99.0312 18.375 98.6016 18.5234 98.1484 18.8203C97.6953 19.1016 97.2812 19.5625 96.9062 20.2031C96.5312 20.8281 96.2188 21.6328 95.9688 22.6172C95.7188 23.6016 95.5938 24.7969 95.5938 26.2031V26.7422C96.125 26.4609 96.7109 26.0938 97.3516 25.6406C98.0078 25.1719 98.6172 24.6562 99.1797 24.0938C99.7422 23.5312 100.211 22.9375 100.586 22.3125C100.977 21.6719 101.172 21.0312 101.172 20.3906Z" fill="#B2E0DE"/>
</svg>
